<mxfile host="Electron" modified="2023-10-21T09:12:32.232Z" agent="Mozilla/5.0 (Windows NT 10.0; Win64; x64) AppleWebKit/537.36 (KHTML, like Gecko) draw.io/22.0.2 Chrome/114.0.5735.289 Electron/25.8.4 Safari/537.36" etag="Xr-FxZotiwir7re78ikM" version="22.0.2" type="device">
  <diagram name="Page-1" id="tydHrGEadtjsayEtX0Bs">
    <mxGraphModel dx="3651" dy="2837" grid="1" gridSize="10" guides="1" tooltips="1" connect="1" arrows="1" fold="1" page="1" pageScale="1" pageWidth="850" pageHeight="1100" math="0" shadow="0">
      <root>
        <mxCell id="0" />
        <mxCell id="1" parent="0" />
        <mxCell id="6yUyEg-KqjyoAzudW4GW-1" value="User" style="swimlane;fontStyle=1;align=center;verticalAlign=top;childLayout=stackLayout;horizontal=1;startSize=24.876924954927883;horizontalStack=0;resizeParent=1;resizeParentMax=0;resizeLast=0;collapsible=0;marginBottom=0;" parent="1" vertex="1">
          <mxGeometry x="418" y="337" width="449" height="257.87692495492786" as="geometry" />
        </mxCell>
        <mxCell id="6yUyEg-KqjyoAzudW4GW-2" value="- userId: int" style="text;strokeColor=none;fillColor=none;align=left;verticalAlign=top;spacingLeft=4;spacingRight=4;overflow=hidden;rotatable=0;points=[[0,0.5],[1,0.5]];portConstraint=eastwest;" parent="6yUyEg-KqjyoAzudW4GW-1" vertex="1">
          <mxGeometry y="24.876924954927883" width="449" height="25" as="geometry" />
        </mxCell>
        <mxCell id="6yUyEg-KqjyoAzudW4GW-3" value="- username: string" style="text;strokeColor=none;fillColor=none;align=left;verticalAlign=top;spacingLeft=4;spacingRight=4;overflow=hidden;rotatable=0;points=[[0,0.5],[1,0.5]];portConstraint=eastwest;" parent="6yUyEg-KqjyoAzudW4GW-1" vertex="1">
          <mxGeometry y="49.87692495492789" width="449" height="25" as="geometry" />
        </mxCell>
        <mxCell id="6yUyEg-KqjyoAzudW4GW-4" value="- password: string" style="text;strokeColor=none;fillColor=none;align=left;verticalAlign=top;spacingLeft=4;spacingRight=4;overflow=hidden;rotatable=0;points=[[0,0.5],[1,0.5]];portConstraint=eastwest;" parent="6yUyEg-KqjyoAzudW4GW-1" vertex="1">
          <mxGeometry y="74.87692495492789" width="449" height="25" as="geometry" />
        </mxCell>
        <mxCell id="6yUyEg-KqjyoAzudW4GW-5" value="- email: string" style="text;strokeColor=none;fillColor=none;align=left;verticalAlign=top;spacingLeft=4;spacingRight=4;overflow=hidden;rotatable=0;points=[[0,0.5],[1,0.5]];portConstraint=eastwest;" parent="6yUyEg-KqjyoAzudW4GW-1" vertex="1">
          <mxGeometry y="99.87692495492789" width="449" height="25" as="geometry" />
        </mxCell>
        <mxCell id="6yUyEg-KqjyoAzudW4GW-6" value="- address: string" style="text;strokeColor=none;fillColor=none;align=left;verticalAlign=top;spacingLeft=4;spacingRight=4;overflow=hidden;rotatable=0;points=[[0,0.5],[1,0.5]];portConstraint=eastwest;" parent="6yUyEg-KqjyoAzudW4GW-1" vertex="1">
          <mxGeometry y="124.87692495492789" width="449" height="25" as="geometry" />
        </mxCell>
        <mxCell id="6yUyEg-KqjyoAzudW4GW-7" style="line;strokeWidth=1;fillColor=none;align=left;verticalAlign=middle;spacingTop=-1;spacingLeft=3;spacingRight=3;rotatable=0;labelPosition=right;points=[];portConstraint=eastwest;strokeColor=inherit;" parent="6yUyEg-KqjyoAzudW4GW-1" vertex="1">
          <mxGeometry y="149.8769249549279" width="449" height="8" as="geometry" />
        </mxCell>
        <mxCell id="6yUyEg-KqjyoAzudW4GW-8" value="+ register(): boolean" style="text;strokeColor=none;fillColor=none;align=left;verticalAlign=top;spacingLeft=4;spacingRight=4;overflow=hidden;rotatable=0;points=[[0,0.5],[1,0.5]];portConstraint=eastwest;" parent="6yUyEg-KqjyoAzudW4GW-1" vertex="1">
          <mxGeometry y="157.8769249549279" width="449" height="25" as="geometry" />
        </mxCell>
        <mxCell id="6yUyEg-KqjyoAzudW4GW-9" value="+ login(): boolean" style="text;strokeColor=none;fillColor=none;align=left;verticalAlign=top;spacingLeft=4;spacingRight=4;overflow=hidden;rotatable=0;points=[[0,0.5],[1,0.5]];portConstraint=eastwest;" parent="6yUyEg-KqjyoAzudW4GW-1" vertex="1">
          <mxGeometry y="182.8769249549279" width="449" height="25" as="geometry" />
        </mxCell>
        <mxCell id="6yUyEg-KqjyoAzudW4GW-10" value="+ logout()" style="text;strokeColor=none;fillColor=none;align=left;verticalAlign=top;spacingLeft=4;spacingRight=4;overflow=hidden;rotatable=0;points=[[0,0.5],[1,0.5]];portConstraint=eastwest;" parent="6yUyEg-KqjyoAzudW4GW-1" vertex="1">
          <mxGeometry y="207.8769249549279" width="449" height="25" as="geometry" />
        </mxCell>
        <mxCell id="6yUyEg-KqjyoAzudW4GW-13" value="+ viewOrderHistory(): List" style="text;strokeColor=none;fillColor=none;align=left;verticalAlign=top;spacingLeft=4;spacingRight=4;overflow=hidden;rotatable=0;points=[[0,0.5],[1,0.5]];portConstraint=eastwest;" parent="6yUyEg-KqjyoAzudW4GW-1" vertex="1">
          <mxGeometry y="232.8769249549279" width="449" height="25" as="geometry" />
        </mxCell>
        <mxCell id="6yUyEg-KqjyoAzudW4GW-15" value="Restaurant" style="swimlane;fontStyle=1;align=center;verticalAlign=top;childLayout=stackLayout;horizontal=1;startSize=25.5;horizontalStack=0;resizeParent=1;resizeParentMax=0;resizeLast=0;collapsible=0;marginBottom=0;" parent="1" vertex="1">
          <mxGeometry x="307" y="1080" width="354" height="267.5" as="geometry" />
        </mxCell>
        <mxCell id="6yUyEg-KqjyoAzudW4GW-16" value="- restaurantId: int" style="text;strokeColor=none;fillColor=none;align=left;verticalAlign=top;spacingLeft=4;spacingRight=4;overflow=hidden;rotatable=0;points=[[0,0.5],[1,0.5]];portConstraint=eastwest;" parent="6yUyEg-KqjyoAzudW4GW-15" vertex="1">
          <mxGeometry y="25.5" width="354" height="26" as="geometry" />
        </mxCell>
        <mxCell id="6yUyEg-KqjyoAzudW4GW-17" value="- name: string" style="text;strokeColor=none;fillColor=none;align=left;verticalAlign=top;spacingLeft=4;spacingRight=4;overflow=hidden;rotatable=0;points=[[0,0.5],[1,0.5]];portConstraint=eastwest;" parent="6yUyEg-KqjyoAzudW4GW-15" vertex="1">
          <mxGeometry y="51.5" width="354" height="26" as="geometry" />
        </mxCell>
        <mxCell id="6yUyEg-KqjyoAzudW4GW-18" value="- description: string" style="text;strokeColor=none;fillColor=none;align=left;verticalAlign=top;spacingLeft=4;spacingRight=4;overflow=hidden;rotatable=0;points=[[0,0.5],[1,0.5]];portConstraint=eastwest;" parent="6yUyEg-KqjyoAzudW4GW-15" vertex="1">
          <mxGeometry y="77.5" width="354" height="26" as="geometry" />
        </mxCell>
        <mxCell id="6yUyEg-KqjyoAzudW4GW-19" value="- menu: List&lt;menuitem&gt;&lt;/menuitem&gt;" style="text;strokeColor=none;fillColor=none;align=left;verticalAlign=top;spacingLeft=4;spacingRight=4;overflow=hidden;rotatable=0;points=[[0,0.5],[1,0.5]];portConstraint=eastwest;" parent="6yUyEg-KqjyoAzudW4GW-15" vertex="1">
          <mxGeometry y="103.5" width="354" height="26" as="geometry" />
        </mxCell>
        <mxCell id="6yUyEg-KqjyoAzudW4GW-20" value="- rating: double" style="text;strokeColor=none;fillColor=none;align=left;verticalAlign=top;spacingLeft=4;spacingRight=4;overflow=hidden;rotatable=0;points=[[0,0.5],[1,0.5]];portConstraint=eastwest;" parent="6yUyEg-KqjyoAzudW4GW-15" vertex="1">
          <mxGeometry y="129.5" width="354" height="26" as="geometry" />
        </mxCell>
        <mxCell id="6yUyEg-KqjyoAzudW4GW-21" style="line;strokeWidth=1;fillColor=none;align=left;verticalAlign=middle;spacingTop=-1;spacingLeft=3;spacingRight=3;rotatable=0;labelPosition=right;points=[];portConstraint=eastwest;strokeColor=inherit;" parent="6yUyEg-KqjyoAzudW4GW-15" vertex="1">
          <mxGeometry y="155.5" width="354" height="8" as="geometry" />
        </mxCell>
        <mxCell id="6yUyEg-KqjyoAzudW4GW-22" value="+ getAverageRating(): double" style="text;strokeColor=none;fillColor=none;align=left;verticalAlign=top;spacingLeft=4;spacingRight=4;overflow=hidden;rotatable=0;points=[[0,0.5],[1,0.5]];portConstraint=eastwest;" parent="6yUyEg-KqjyoAzudW4GW-15" vertex="1">
          <mxGeometry y="163.5" width="354" height="26" as="geometry" />
        </mxCell>
        <mxCell id="6yUyEg-KqjyoAzudW4GW-23" value="+ exploreMenu(): List&lt;menuitem&gt;&lt;/menuitem&gt;" style="text;strokeColor=none;fillColor=none;align=left;verticalAlign=top;spacingLeft=4;spacingRight=4;overflow=hidden;rotatable=0;points=[[0,0.5],[1,0.5]];portConstraint=eastwest;" parent="6yUyEg-KqjyoAzudW4GW-15" vertex="1">
          <mxGeometry y="189.5" width="354" height="26" as="geometry" />
        </mxCell>
        <mxCell id="6yUyEg-KqjyoAzudW4GW-24" value="+ markFavorite(): boolean" style="text;strokeColor=none;fillColor=none;align=left;verticalAlign=top;spacingLeft=4;spacingRight=4;overflow=hidden;rotatable=0;points=[[0,0.5],[1,0.5]];portConstraint=eastwest;" parent="6yUyEg-KqjyoAzudW4GW-15" vertex="1">
          <mxGeometry y="215.5" width="354" height="26" as="geometry" />
        </mxCell>
        <mxCell id="6yUyEg-KqjyoAzudW4GW-25" value="+ viewPromotions(): List" style="text;strokeColor=none;fillColor=none;align=left;verticalAlign=top;spacingLeft=4;spacingRight=4;overflow=hidden;rotatable=0;points=[[0,0.5],[1,0.5]];portConstraint=eastwest;" parent="6yUyEg-KqjyoAzudW4GW-15" vertex="1">
          <mxGeometry y="241.5" width="354" height="26" as="geometry" />
        </mxCell>
        <mxCell id="6yUyEg-KqjyoAzudW4GW-26" value="Order" style="swimlane;fontStyle=1;align=center;verticalAlign=top;childLayout=stackLayout;horizontal=1;startSize=25.5;horizontalStack=0;resizeParent=1;resizeParentMax=0;resizeLast=0;collapsible=0;marginBottom=0;" parent="1" vertex="1">
          <mxGeometry x="1086" y="718" width="463" height="241.5" as="geometry" />
        </mxCell>
        <mxCell id="6yUyEg-KqjyoAzudW4GW-27" value="- orderId: int" style="text;strokeColor=none;fillColor=none;align=left;verticalAlign=top;spacingLeft=4;spacingRight=4;overflow=hidden;rotatable=0;points=[[0,0.5],[1,0.5]];portConstraint=eastwest;" parent="6yUyEg-KqjyoAzudW4GW-26" vertex="1">
          <mxGeometry y="25.5" width="463" height="26" as="geometry" />
        </mxCell>
        <mxCell id="6yUyEg-KqjyoAzudW4GW-28" value="- userId: int" style="text;strokeColor=none;fillColor=none;align=left;verticalAlign=top;spacingLeft=4;spacingRight=4;overflow=hidden;rotatable=0;points=[[0,0.5],[1,0.5]];portConstraint=eastwest;" parent="6yUyEg-KqjyoAzudW4GW-26" vertex="1">
          <mxGeometry y="51.5" width="463" height="26" as="geometry" />
        </mxCell>
        <mxCell id="6yUyEg-KqjyoAzudW4GW-29" value="- orderDate: datetime" style="text;strokeColor=none;fillColor=none;align=left;verticalAlign=top;spacingLeft=4;spacingRight=4;overflow=hidden;rotatable=0;points=[[0,0.5],[1,0.5]];portConstraint=eastwest;" parent="6yUyEg-KqjyoAzudW4GW-26" vertex="1">
          <mxGeometry y="77.5" width="463" height="26" as="geometry" />
        </mxCell>
        <mxCell id="6yUyEg-KqjyoAzudW4GW-30" value="- status: OrderStatus" style="text;strokeColor=none;fillColor=none;align=left;verticalAlign=top;spacingLeft=4;spacingRight=4;overflow=hidden;rotatable=0;points=[[0,0.5],[1,0.5]];portConstraint=eastwest;" parent="6yUyEg-KqjyoAzudW4GW-26" vertex="1">
          <mxGeometry y="103.5" width="463" height="26" as="geometry" />
        </mxCell>
        <mxCell id="6yUyEg-KqjyoAzudW4GW-31" value="- totalAmount: double" style="text;strokeColor=none;fillColor=none;align=left;verticalAlign=top;spacingLeft=4;spacingRight=4;overflow=hidden;rotatable=0;points=[[0,0.5],[1,0.5]];portConstraint=eastwest;" parent="6yUyEg-KqjyoAzudW4GW-26" vertex="1">
          <mxGeometry y="129.5" width="463" height="26" as="geometry" />
        </mxCell>
        <mxCell id="6yUyEg-KqjyoAzudW4GW-32" style="line;strokeWidth=1;fillColor=none;align=left;verticalAlign=middle;spacingTop=-1;spacingLeft=3;spacingRight=3;rotatable=0;labelPosition=right;points=[];portConstraint=eastwest;strokeColor=inherit;" parent="6yUyEg-KqjyoAzudW4GW-26" vertex="1">
          <mxGeometry y="155.5" width="463" height="8" as="geometry" />
        </mxCell>
        <mxCell id="6yUyEg-KqjyoAzudW4GW-33" value="+ createOrder(cart: Cart): boolean" style="text;strokeColor=none;fillColor=none;align=left;verticalAlign=top;spacingLeft=4;spacingRight=4;overflow=hidden;rotatable=0;points=[[0,0.5],[1,0.5]];portConstraint=eastwest;" parent="6yUyEg-KqjyoAzudW4GW-26" vertex="1">
          <mxGeometry y="163.5" width="463" height="26" as="geometry" />
        </mxCell>
        <mxCell id="6yUyEg-KqjyoAzudW4GW-34" value="+ cancelOrder(orderId: int): boolean" style="text;strokeColor=none;fillColor=none;align=left;verticalAlign=top;spacingLeft=4;spacingRight=4;overflow=hidden;rotatable=0;points=[[0,0.5],[1,0.5]];portConstraint=eastwest;" parent="6yUyEg-KqjyoAzudW4GW-26" vertex="1">
          <mxGeometry y="189.5" width="463" height="26" as="geometry" />
        </mxCell>
        <mxCell id="6yUyEg-KqjyoAzudW4GW-36" value="+ processPayment(paymentInfo: PaymentInfo): boolean" style="text;strokeColor=none;fillColor=none;align=left;verticalAlign=top;spacingLeft=4;spacingRight=4;overflow=hidden;rotatable=0;points=[[0,0.5],[1,0.5]];portConstraint=eastwest;" parent="6yUyEg-KqjyoAzudW4GW-26" vertex="1">
          <mxGeometry y="215.5" width="463" height="26" as="geometry" />
        </mxCell>
        <mxCell id="6yUyEg-KqjyoAzudW4GW-37" value="Review" style="swimlane;fontStyle=1;align=center;verticalAlign=top;childLayout=stackLayout;horizontal=1;startSize=26.65714372907366;horizontalStack=0;resizeParent=1;resizeParentMax=0;resizeLast=0;collapsible=0;marginBottom=0;" parent="1" vertex="1">
          <mxGeometry x="780" y="1463" width="543" height="196.65714372907365" as="geometry" />
        </mxCell>
        <mxCell id="6yUyEg-KqjyoAzudW4GW-38" value="- reviewId: int" style="text;strokeColor=none;fillColor=none;align=left;verticalAlign=top;spacingLeft=4;spacingRight=4;overflow=hidden;rotatable=0;points=[[0,0.5],[1,0.5]];portConstraint=eastwest;" parent="6yUyEg-KqjyoAzudW4GW-37" vertex="1">
          <mxGeometry y="26.65714372907366" width="543" height="27" as="geometry" />
        </mxCell>
        <mxCell id="6yUyEg-KqjyoAzudW4GW-39" value="- userId: int" style="text;strokeColor=none;fillColor=none;align=left;verticalAlign=top;spacingLeft=4;spacingRight=4;overflow=hidden;rotatable=0;points=[[0,0.5],[1,0.5]];portConstraint=eastwest;" parent="6yUyEg-KqjyoAzudW4GW-37" vertex="1">
          <mxGeometry y="53.65714372907366" width="543" height="27" as="geometry" />
        </mxCell>
        <mxCell id="6yUyEg-KqjyoAzudW4GW-40" value="- restaurantId: int" style="text;strokeColor=none;fillColor=none;align=left;verticalAlign=top;spacingLeft=4;spacingRight=4;overflow=hidden;rotatable=0;points=[[0,0.5],[1,0.5]];portConstraint=eastwest;" parent="6yUyEg-KqjyoAzudW4GW-37" vertex="1">
          <mxGeometry y="80.65714372907365" width="543" height="27" as="geometry" />
        </mxCell>
        <mxCell id="6yUyEg-KqjyoAzudW4GW-41" value="- rating: double" style="text;strokeColor=none;fillColor=none;align=left;verticalAlign=top;spacingLeft=4;spacingRight=4;overflow=hidden;rotatable=0;points=[[0,0.5],[1,0.5]];portConstraint=eastwest;" parent="6yUyEg-KqjyoAzudW4GW-37" vertex="1">
          <mxGeometry y="107.65714372907365" width="543" height="27" as="geometry" />
        </mxCell>
        <mxCell id="6yUyEg-KqjyoAzudW4GW-42" value="- comment: string" style="text;strokeColor=none;fillColor=none;align=left;verticalAlign=top;spacingLeft=4;spacingRight=4;overflow=hidden;rotatable=0;points=[[0,0.5],[1,0.5]];portConstraint=eastwest;" parent="6yUyEg-KqjyoAzudW4GW-37" vertex="1">
          <mxGeometry y="134.65714372907365" width="543" height="27" as="geometry" />
        </mxCell>
        <mxCell id="6yUyEg-KqjyoAzudW4GW-43" style="line;strokeWidth=1;fillColor=none;align=left;verticalAlign=middle;spacingTop=-1;spacingLeft=3;spacingRight=3;rotatable=0;labelPosition=right;points=[];portConstraint=eastwest;strokeColor=inherit;" parent="6yUyEg-KqjyoAzudW4GW-37" vertex="1">
          <mxGeometry y="161.65714372907365" width="543" height="8" as="geometry" />
        </mxCell>
        <mxCell id="6yUyEg-KqjyoAzudW4GW-44" value="+ addReview(restaurantId: int, rating: double, comment: string): boolean" style="text;strokeColor=none;fillColor=none;align=left;verticalAlign=top;spacingLeft=4;spacingRight=4;overflow=hidden;rotatable=0;points=[[0,0.5],[1,0.5]];portConstraint=eastwest;" parent="6yUyEg-KqjyoAzudW4GW-37" vertex="1">
          <mxGeometry y="169.65714372907365" width="543" height="27" as="geometry" />
        </mxCell>
        <mxCell id="6yUyEg-KqjyoAzudW4GW-45" value="ManageCart" style="swimlane;fontStyle=1;align=center;verticalAlign=top;childLayout=stackLayout;horizontal=1;startSize=27.300003051757812;horizontalStack=0;resizeParent=1;resizeParentMax=0;resizeLast=0;collapsible=0;marginBottom=0;" parent="1" vertex="1">
          <mxGeometry x="1690" y="1077" width="340" height="170.3000030517578" as="geometry" />
        </mxCell>
        <mxCell id="6yUyEg-KqjyoAzudW4GW-46" value="- cartItems: List" style="text;strokeColor=none;fillColor=none;align=left;verticalAlign=top;spacingLeft=4;spacingRight=4;overflow=hidden;rotatable=0;points=[[0,0.5],[1,0.5]];portConstraint=eastwest;" parent="6yUyEg-KqjyoAzudW4GW-45" vertex="1">
          <mxGeometry y="27.300003051757812" width="340" height="27" as="geometry" />
        </mxCell>
        <mxCell id="6yUyEg-KqjyoAzudW4GW-47" style="line;strokeWidth=1;fillColor=none;align=left;verticalAlign=middle;spacingTop=-1;spacingLeft=3;spacingRight=3;rotatable=0;labelPosition=right;points=[];portConstraint=eastwest;strokeColor=inherit;" parent="6yUyEg-KqjyoAzudW4GW-45" vertex="1">
          <mxGeometry y="54.30000305175781" width="340" height="8" as="geometry" />
        </mxCell>
        <mxCell id="6yUyEg-KqjyoAzudW4GW-48" value="+ addCartItem(item: MenuItem, quantity: int)" style="text;strokeColor=none;fillColor=none;align=left;verticalAlign=top;spacingLeft=4;spacingRight=4;overflow=hidden;rotatable=0;points=[[0,0.5],[1,0.5]];portConstraint=eastwest;" parent="6yUyEg-KqjyoAzudW4GW-45" vertex="1">
          <mxGeometry y="62.30000305175781" width="340" height="27" as="geometry" />
        </mxCell>
        <mxCell id="6yUyEg-KqjyoAzudW4GW-49" value="+ removeCartItem(item: MenuItem)" style="text;strokeColor=none;fillColor=none;align=left;verticalAlign=top;spacingLeft=4;spacingRight=4;overflow=hidden;rotatable=0;points=[[0,0.5],[1,0.5]];portConstraint=eastwest;" parent="6yUyEg-KqjyoAzudW4GW-45" vertex="1">
          <mxGeometry y="89.30000305175781" width="340" height="27" as="geometry" />
        </mxCell>
        <mxCell id="6yUyEg-KqjyoAzudW4GW-50" value="+ clearCart()" style="text;strokeColor=none;fillColor=none;align=left;verticalAlign=top;spacingLeft=4;spacingRight=4;overflow=hidden;rotatable=0;points=[[0,0.5],[1,0.5]];portConstraint=eastwest;" parent="6yUyEg-KqjyoAzudW4GW-45" vertex="1">
          <mxGeometry y="116.30000305175781" width="340" height="27" as="geometry" />
        </mxCell>
        <mxCell id="6yUyEg-KqjyoAzudW4GW-51" value="+ viewCartContents(): List" style="text;strokeColor=none;fillColor=none;align=left;verticalAlign=top;spacingLeft=4;spacingRight=4;overflow=hidden;rotatable=0;points=[[0,0.5],[1,0.5]];portConstraint=eastwest;" parent="6yUyEg-KqjyoAzudW4GW-45" vertex="1">
          <mxGeometry y="143.3000030517578" width="340" height="27" as="geometry" />
        </mxCell>
        <mxCell id="6yUyEg-KqjyoAzudW4GW-52" value="MenuItem" style="swimlane;fontStyle=1;align=center;verticalAlign=top;childLayout=stackLayout;horizontal=1;startSize=27.300003051757812;horizontalStack=0;resizeParent=1;resizeParentMax=0;resizeLast=0;collapsible=0;marginBottom=0;" parent="1" vertex="1">
          <mxGeometry x="363" y="1520" width="243" height="170.3000030517578" as="geometry" />
        </mxCell>
        <mxCell id="6yUyEg-KqjyoAzudW4GW-53" value="- itemId: int" style="text;strokeColor=none;fillColor=none;align=left;verticalAlign=top;spacingLeft=4;spacingRight=4;overflow=hidden;rotatable=0;points=[[0,0.5],[1,0.5]];portConstraint=eastwest;" parent="6yUyEg-KqjyoAzudW4GW-52" vertex="1">
          <mxGeometry y="27.300003051757812" width="243" height="27" as="geometry" />
        </mxCell>
        <mxCell id="6yUyEg-KqjyoAzudW4GW-54" value="- name: string" style="text;strokeColor=none;fillColor=none;align=left;verticalAlign=top;spacingLeft=4;spacingRight=4;overflow=hidden;rotatable=0;points=[[0,0.5],[1,0.5]];portConstraint=eastwest;" parent="6yUyEg-KqjyoAzudW4GW-52" vertex="1">
          <mxGeometry y="54.30000305175781" width="243" height="27" as="geometry" />
        </mxCell>
        <mxCell id="6yUyEg-KqjyoAzudW4GW-55" value="- description: string" style="text;strokeColor=none;fillColor=none;align=left;verticalAlign=top;spacingLeft=4;spacingRight=4;overflow=hidden;rotatable=0;points=[[0,0.5],[1,0.5]];portConstraint=eastwest;" parent="6yUyEg-KqjyoAzudW4GW-52" vertex="1">
          <mxGeometry y="81.30000305175781" width="243" height="27" as="geometry" />
        </mxCell>
        <mxCell id="6yUyEg-KqjyoAzudW4GW-56" value="- price: double" style="text;strokeColor=none;fillColor=none;align=left;verticalAlign=top;spacingLeft=4;spacingRight=4;overflow=hidden;rotatable=0;points=[[0,0.5],[1,0.5]];portConstraint=eastwest;" parent="6yUyEg-KqjyoAzudW4GW-52" vertex="1">
          <mxGeometry y="108.30000305175781" width="243" height="27" as="geometry" />
        </mxCell>
        <mxCell id="6yUyEg-KqjyoAzudW4GW-57" style="line;strokeWidth=1;fillColor=none;align=left;verticalAlign=middle;spacingTop=-1;spacingLeft=3;spacingRight=3;rotatable=0;labelPosition=right;points=[];portConstraint=eastwest;strokeColor=inherit;" parent="6yUyEg-KqjyoAzudW4GW-52" vertex="1">
          <mxGeometry y="135.3000030517578" width="243" height="8" as="geometry" />
        </mxCell>
        <mxCell id="6yUyEg-KqjyoAzudW4GW-58" value="+ viewMenuItemDetails(): string" style="text;strokeColor=none;fillColor=none;align=left;verticalAlign=top;spacingLeft=4;spacingRight=4;overflow=hidden;rotatable=0;points=[[0,0.5],[1,0.5]];portConstraint=eastwest;" parent="6yUyEg-KqjyoAzudW4GW-52" vertex="1">
          <mxGeometry y="143.3000030517578" width="243" height="27" as="geometry" />
        </mxCell>
        <mxCell id="6yUyEg-KqjyoAzudW4GW-59" value="CartItem" style="swimlane;fontStyle=1;align=center;verticalAlign=top;childLayout=stackLayout;horizontal=1;startSize=29.549999237060547;horizontalStack=0;resizeParent=1;resizeParentMax=0;resizeLast=0;collapsible=0;marginBottom=0;" parent="1" vertex="1">
          <mxGeometry x="1747" y="1378" width="226" height="127.54999923706055" as="geometry" />
        </mxCell>
        <mxCell id="6yUyEg-KqjyoAzudW4GW-60" value="- item: MenuItem" style="text;strokeColor=none;fillColor=none;align=left;verticalAlign=top;spacingLeft=4;spacingRight=4;overflow=hidden;rotatable=0;points=[[0,0.5],[1,0.5]];portConstraint=eastwest;" parent="6yUyEg-KqjyoAzudW4GW-59" vertex="1">
          <mxGeometry y="29.549999237060547" width="226" height="30" as="geometry" />
        </mxCell>
        <mxCell id="6yUyEg-KqjyoAzudW4GW-61" value="- quantity: int" style="text;strokeColor=none;fillColor=none;align=left;verticalAlign=top;spacingLeft=4;spacingRight=4;overflow=hidden;rotatable=0;points=[[0,0.5],[1,0.5]];portConstraint=eastwest;" parent="6yUyEg-KqjyoAzudW4GW-59" vertex="1">
          <mxGeometry y="59.54999923706055" width="226" height="30" as="geometry" />
        </mxCell>
        <mxCell id="6yUyEg-KqjyoAzudW4GW-62" style="line;strokeWidth=1;fillColor=none;align=left;verticalAlign=middle;spacingTop=-1;spacingLeft=3;spacingRight=3;rotatable=0;labelPosition=right;points=[];portConstraint=eastwest;strokeColor=inherit;" parent="6yUyEg-KqjyoAzudW4GW-59" vertex="1">
          <mxGeometry y="89.54999923706055" width="226" height="8" as="geometry" />
        </mxCell>
        <mxCell id="6yUyEg-KqjyoAzudW4GW-63" value="+ getItemTotalPrice(): double" style="text;strokeColor=none;fillColor=none;align=left;verticalAlign=top;spacingLeft=4;spacingRight=4;overflow=hidden;rotatable=0;points=[[0,0.5],[1,0.5]];portConstraint=eastwest;" parent="6yUyEg-KqjyoAzudW4GW-59" vertex="1">
          <mxGeometry y="97.54999923706055" width="226" height="30" as="geometry" />
        </mxCell>
        <mxCell id="6yUyEg-KqjyoAzudW4GW-64" value="UserProfile" style="swimlane;fontStyle=1;align=center;verticalAlign=top;childLayout=stackLayout;horizontal=1;startSize=25.799999660915798;horizontalStack=0;resizeParent=1;resizeParentMax=0;resizeLast=0;collapsible=0;marginBottom=0;" parent="1" vertex="1">
          <mxGeometry x="300" y="730" width="369" height="241.7999996609158" as="geometry" />
        </mxCell>
        <mxCell id="6yUyEg-KqjyoAzudW4GW-65" value="- userId: int" style="text;strokeColor=none;fillColor=none;align=left;verticalAlign=top;spacingLeft=4;spacingRight=4;overflow=hidden;rotatable=0;points=[[0,0.5],[1,0.5]];portConstraint=eastwest;" parent="6yUyEg-KqjyoAzudW4GW-64" vertex="1">
          <mxGeometry y="25.799999660915798" width="369" height="26" as="geometry" />
        </mxCell>
        <mxCell id="6yUyEg-KqjyoAzudW4GW-66" value="- username: string" style="text;strokeColor=none;fillColor=none;align=left;verticalAlign=top;spacingLeft=4;spacingRight=4;overflow=hidden;rotatable=0;points=[[0,0.5],[1,0.5]];portConstraint=eastwest;" parent="6yUyEg-KqjyoAzudW4GW-64" vertex="1">
          <mxGeometry y="51.7999996609158" width="369" height="26" as="geometry" />
        </mxCell>
        <mxCell id="6yUyEg-KqjyoAzudW4GW-67" value="- email: string" style="text;strokeColor=none;fillColor=none;align=left;verticalAlign=top;spacingLeft=4;spacingRight=4;overflow=hidden;rotatable=0;points=[[0,0.5],[1,0.5]];portConstraint=eastwest;" parent="6yUyEg-KqjyoAzudW4GW-64" vertex="1">
          <mxGeometry y="77.7999996609158" width="369" height="26" as="geometry" />
        </mxCell>
        <mxCell id="6yUyEg-KqjyoAzudW4GW-68" value="- address: string" style="text;strokeColor=none;fillColor=none;align=left;verticalAlign=top;spacingLeft=4;spacingRight=4;overflow=hidden;rotatable=0;points=[[0,0.5],[1,0.5]];portConstraint=eastwest;" parent="6yUyEg-KqjyoAzudW4GW-64" vertex="1">
          <mxGeometry y="103.7999996609158" width="369" height="26" as="geometry" />
        </mxCell>
        <mxCell id="6yUyEg-KqjyoAzudW4GW-69" value="- favoriteRestaurants: List" style="text;strokeColor=none;fillColor=none;align=left;verticalAlign=top;spacingLeft=4;spacingRight=4;overflow=hidden;rotatable=0;points=[[0,0.5],[1,0.5]];portConstraint=eastwest;" parent="6yUyEg-KqjyoAzudW4GW-64" vertex="1">
          <mxGeometry y="129.7999996609158" width="369" height="26" as="geometry" />
        </mxCell>
        <mxCell id="6yUyEg-KqjyoAzudW4GW-70" style="line;strokeWidth=1;fillColor=none;align=left;verticalAlign=middle;spacingTop=-1;spacingLeft=3;spacingRight=3;rotatable=0;labelPosition=right;points=[];portConstraint=eastwest;strokeColor=inherit;" parent="6yUyEg-KqjyoAzudW4GW-64" vertex="1">
          <mxGeometry y="155.7999996609158" width="369" height="8" as="geometry" />
        </mxCell>
        <mxCell id="6yUyEg-KqjyoAzudW4GW-71" value="+ updateProfile(data: UserProfile): boolean" style="text;strokeColor=none;fillColor=none;align=left;verticalAlign=top;spacingLeft=4;spacingRight=4;overflow=hidden;rotatable=0;points=[[0,0.5],[1,0.5]];portConstraint=eastwest;" parent="6yUyEg-KqjyoAzudW4GW-64" vertex="1">
          <mxGeometry y="163.7999996609158" width="369" height="26" as="geometry" />
        </mxCell>
        <mxCell id="6yUyEg-KqjyoAzudW4GW-72" value="+ changePassword(newPassword: string): boolean" style="text;strokeColor=none;fillColor=none;align=left;verticalAlign=top;spacingLeft=4;spacingRight=4;overflow=hidden;rotatable=0;points=[[0,0.5],[1,0.5]];portConstraint=eastwest;" parent="6yUyEg-KqjyoAzudW4GW-64" vertex="1">
          <mxGeometry y="189.7999996609158" width="369" height="26" as="geometry" />
        </mxCell>
        <mxCell id="6yUyEg-KqjyoAzudW4GW-73" value="+ viewFavoriteRestaurants(): List" style="text;strokeColor=none;fillColor=none;align=left;verticalAlign=top;spacingLeft=4;spacingRight=4;overflow=hidden;rotatable=0;points=[[0,0.5],[1,0.5]];portConstraint=eastwest;" parent="6yUyEg-KqjyoAzudW4GW-64" vertex="1">
          <mxGeometry y="215.7999996609158" width="369" height="26" as="geometry" />
        </mxCell>
        <mxCell id="6yUyEg-KqjyoAzudW4GW-74" value="CustomerSupport" style="swimlane;fontStyle=1;align=center;verticalAlign=top;childLayout=stackLayout;horizontal=1;startSize=29.549999237060547;horizontalStack=0;resizeParent=1;resizeParentMax=0;resizeLast=0;collapsible=0;marginBottom=0;" parent="1" vertex="1">
          <mxGeometry x="604" y="-6" width="298" height="127.54999923706055" as="geometry" />
        </mxCell>
        <mxCell id="6yUyEg-KqjyoAzudW4GW-75" value="- supportId: int" style="text;strokeColor=none;fillColor=none;align=left;verticalAlign=top;spacingLeft=4;spacingRight=4;overflow=hidden;rotatable=0;points=[[0,0.5],[1,0.5]];portConstraint=eastwest;" parent="6yUyEg-KqjyoAzudW4GW-74" vertex="1">
          <mxGeometry y="29.549999237060547" width="298" height="30" as="geometry" />
        </mxCell>
        <mxCell id="6yUyEg-KqjyoAzudW4GW-76" value="- supportPhoneNumber: string" style="text;strokeColor=none;fillColor=none;align=left;verticalAlign=top;spacingLeft=4;spacingRight=4;overflow=hidden;rotatable=0;points=[[0,0.5],[1,0.5]];portConstraint=eastwest;" parent="6yUyEg-KqjyoAzudW4GW-74" vertex="1">
          <mxGeometry y="59.54999923706055" width="298" height="30" as="geometry" />
        </mxCell>
        <mxCell id="6yUyEg-KqjyoAzudW4GW-77" style="line;strokeWidth=1;fillColor=none;align=left;verticalAlign=middle;spacingTop=-1;spacingLeft=3;spacingRight=3;rotatable=0;labelPosition=right;points=[];portConstraint=eastwest;strokeColor=inherit;" parent="6yUyEg-KqjyoAzudW4GW-74" vertex="1">
          <mxGeometry y="89.54999923706055" width="298" height="8" as="geometry" />
        </mxCell>
        <mxCell id="6yUyEg-KqjyoAzudW4GW-78" value="+ getHelp(phoneNumber: string): string" style="text;strokeColor=none;fillColor=none;align=left;verticalAlign=top;spacingLeft=4;spacingRight=4;overflow=hidden;rotatable=0;points=[[0,0.5],[1,0.5]];portConstraint=eastwest;" parent="6yUyEg-KqjyoAzudW4GW-74" vertex="1">
          <mxGeometry y="97.54999923706055" width="298" height="30" as="geometry" />
        </mxCell>
        <mxCell id="6yUyEg-KqjyoAzudW4GW-79" value="Promotion" style="swimlane;fontStyle=1;align=center;verticalAlign=top;childLayout=stackLayout;horizontal=1;startSize=26.266665988498264;horizontalStack=0;resizeParent=1;resizeParentMax=0;resizeLast=0;collapsible=0;marginBottom=0;" parent="1" vertex="1">
          <mxGeometry x="18" y="1428.13" width="157" height="117.26666598849826" as="geometry" />
        </mxCell>
        <mxCell id="6yUyEg-KqjyoAzudW4GW-80" value="- promotionId: int" style="text;strokeColor=none;fillColor=none;align=left;verticalAlign=top;spacingLeft=4;spacingRight=4;overflow=hidden;rotatable=0;points=[[0,0.5],[1,0.5]];portConstraint=eastwest;" parent="6yUyEg-KqjyoAzudW4GW-79" vertex="1">
          <mxGeometry y="26.266665988498264" width="157" height="26" as="geometry" />
        </mxCell>
        <mxCell id="6yUyEg-KqjyoAzudW4GW-81" value="- restaurantId: int" style="text;strokeColor=none;fillColor=none;align=left;verticalAlign=top;spacingLeft=4;spacingRight=4;overflow=hidden;rotatable=0;points=[[0,0.5],[1,0.5]];portConstraint=eastwest;" parent="6yUyEg-KqjyoAzudW4GW-79" vertex="1">
          <mxGeometry y="52.26666598849826" width="157" height="26" as="geometry" />
        </mxCell>
        <mxCell id="6yUyEg-KqjyoAzudW4GW-82" value="- description: string" style="text;strokeColor=none;fillColor=none;align=left;verticalAlign=top;spacingLeft=4;spacingRight=4;overflow=hidden;rotatable=0;points=[[0,0.5],[1,0.5]];portConstraint=eastwest;" parent="6yUyEg-KqjyoAzudW4GW-79" vertex="1">
          <mxGeometry y="78.26666598849826" width="157" height="26" as="geometry" />
        </mxCell>
        <mxCell id="6yUyEg-KqjyoAzudW4GW-83" style="line;strokeWidth=1;fillColor=none;align=left;verticalAlign=middle;spacingTop=-1;spacingLeft=3;spacingRight=3;rotatable=0;labelPosition=right;points=[];portConstraint=eastwest;strokeColor=inherit;" parent="6yUyEg-KqjyoAzudW4GW-79" vertex="1">
          <mxGeometry y="104.26666598849826" width="157" height="13" as="geometry" />
        </mxCell>
        <mxCell id="6yUyEg-KqjyoAzudW4GW-84" value="PaymentInfo" style="swimlane;fontStyle=1;align=center;verticalAlign=top;childLayout=stackLayout;horizontal=1;startSize=25.636363636363637;horizontalStack=0;resizeParent=1;resizeParentMax=0;resizeLast=0;collapsible=0;marginBottom=0;" parent="1" vertex="1">
          <mxGeometry x="916" y="1088" width="202" height="142.63636363636363" as="geometry" />
        </mxCell>
        <mxCell id="6yUyEg-KqjyoAzudW4GW-85" value="- paymentId: int" style="text;strokeColor=none;fillColor=none;align=left;verticalAlign=top;spacingLeft=4;spacingRight=4;overflow=hidden;rotatable=0;points=[[0,0.5],[1,0.5]];portConstraint=eastwest;" parent="6yUyEg-KqjyoAzudW4GW-84" vertex="1">
          <mxGeometry y="25.636363636363637" width="202" height="26" as="geometry" />
        </mxCell>
        <mxCell id="6yUyEg-KqjyoAzudW4GW-86" value="- userId: int" style="text;strokeColor=none;fillColor=none;align=left;verticalAlign=top;spacingLeft=4;spacingRight=4;overflow=hidden;rotatable=0;points=[[0,0.5],[1,0.5]];portConstraint=eastwest;" parent="6yUyEg-KqjyoAzudW4GW-84" vertex="1">
          <mxGeometry y="51.63636363636364" width="202" height="26" as="geometry" />
        </mxCell>
        <mxCell id="6yUyEg-KqjyoAzudW4GW-87" value="- paymentAmount: double" style="text;strokeColor=none;fillColor=none;align=left;verticalAlign=top;spacingLeft=4;spacingRight=4;overflow=hidden;rotatable=0;points=[[0,0.5],[1,0.5]];portConstraint=eastwest;" parent="6yUyEg-KqjyoAzudW4GW-84" vertex="1">
          <mxGeometry y="77.63636363636364" width="202" height="26" as="geometry" />
        </mxCell>
        <mxCell id="6yUyEg-KqjyoAzudW4GW-88" value="- paymentDate: datetime" style="text;strokeColor=none;fillColor=none;align=left;verticalAlign=top;spacingLeft=4;spacingRight=4;overflow=hidden;rotatable=0;points=[[0,0.5],[1,0.5]];portConstraint=eastwest;" parent="6yUyEg-KqjyoAzudW4GW-84" vertex="1">
          <mxGeometry y="103.63636363636364" width="202" height="26" as="geometry" />
        </mxCell>
        <mxCell id="6yUyEg-KqjyoAzudW4GW-89" style="line;strokeWidth=1;fillColor=none;align=left;verticalAlign=middle;spacingTop=-1;spacingLeft=3;spacingRight=3;rotatable=0;labelPosition=right;points=[];portConstraint=eastwest;strokeColor=inherit;" parent="6yUyEg-KqjyoAzudW4GW-84" vertex="1">
          <mxGeometry y="129.63636363636363" width="202" height="13" as="geometry" />
        </mxCell>
        <mxCell id="6yUyEg-KqjyoAzudW4GW-90" value="ViewPromotionsAndOffers" style="swimlane;fontStyle=1;align=center;verticalAlign=top;childLayout=stackLayout;horizontal=1;startSize=29.039999389648436;horizontalStack=0;resizeParent=1;resizeParentMax=0;resizeLast=0;collapsible=0;marginBottom=0;" parent="1" vertex="1">
          <mxGeometry x="1030" y="183" width="211" height="66.03999938964844" as="geometry" />
        </mxCell>
        <mxCell id="6yUyEg-KqjyoAzudW4GW-91" style="line;strokeWidth=1;fillColor=none;align=left;verticalAlign=middle;spacingTop=-1;spacingLeft=3;spacingRight=3;rotatable=0;labelPosition=right;points=[];portConstraint=eastwest;strokeColor=inherit;" parent="6yUyEg-KqjyoAzudW4GW-90" vertex="1">
          <mxGeometry y="29.039999389648436" width="211" height="8" as="geometry" />
        </mxCell>
        <mxCell id="6yUyEg-KqjyoAzudW4GW-92" value="+ viewPromotions(): List" style="text;strokeColor=none;fillColor=none;align=left;verticalAlign=top;spacingLeft=4;spacingRight=4;overflow=hidden;rotatable=0;points=[[0,0.5],[1,0.5]];portConstraint=eastwest;" parent="6yUyEg-KqjyoAzudW4GW-90" vertex="1">
          <mxGeometry y="37.039999389648436" width="211" height="29" as="geometry" />
        </mxCell>
        <mxCell id="6yUyEg-KqjyoAzudW4GW-96" value="ManageProfile" style="swimlane;fontStyle=1;align=center;verticalAlign=top;childLayout=stackLayout;horizontal=1;startSize=29.039999389648436;horizontalStack=0;resizeParent=1;resizeParentMax=0;resizeLast=0;collapsible=0;marginBottom=0;" parent="1" vertex="1">
          <mxGeometry x="350" y="160" width="358" height="66.03999938964844" as="geometry" />
        </mxCell>
        <mxCell id="6yUyEg-KqjyoAzudW4GW-97" style="line;strokeWidth=1;fillColor=none;align=left;verticalAlign=middle;spacingTop=-1;spacingLeft=3;spacingRight=3;rotatable=0;labelPosition=right;points=[];portConstraint=eastwest;strokeColor=inherit;" parent="6yUyEg-KqjyoAzudW4GW-96" vertex="1">
          <mxGeometry y="29.039999389648436" width="358" height="8" as="geometry" />
        </mxCell>
        <mxCell id="6yUyEg-KqjyoAzudW4GW-98" value="+ updateUserProfile(data: UserProfile): boolean" style="text;strokeColor=none;fillColor=none;align=left;verticalAlign=top;spacingLeft=4;spacingRight=4;overflow=hidden;rotatable=0;points=[[0,0.5],[1,0.5]];portConstraint=eastwest;" parent="6yUyEg-KqjyoAzudW4GW-96" vertex="1">
          <mxGeometry y="37.039999389648436" width="358" height="29" as="geometry" />
        </mxCell>
        <mxCell id="6yUyEg-KqjyoAzudW4GW-105" value="TrackOrders" style="swimlane;fontStyle=1;align=center;verticalAlign=top;childLayout=stackLayout;horizontal=1;startSize=27.25714329310826;horizontalStack=0;resizeParent=1;resizeParentMax=0;resizeLast=0;collapsible=0;marginBottom=0;" parent="1" vertex="1">
          <mxGeometry x="1065" y="451" width="504" height="89.25714329310826" as="geometry" />
        </mxCell>
        <mxCell id="6yUyEg-KqjyoAzudW4GW-106" style="line;strokeWidth=1;fillColor=none;align=left;verticalAlign=middle;spacingTop=-1;spacingLeft=3;spacingRight=3;rotatable=0;labelPosition=right;points=[];portConstraint=eastwest;strokeColor=inherit;" parent="6yUyEg-KqjyoAzudW4GW-105" vertex="1">
          <mxGeometry y="27.25714329310826" width="504" height="8" as="geometry" />
        </mxCell>
        <mxCell id="6yUyEg-KqjyoAzudW4GW-107" value="+ listOrders(): List" style="text;strokeColor=none;fillColor=none;align=left;verticalAlign=top;spacingLeft=4;spacingRight=4;overflow=hidden;rotatable=0;points=[[0,0.5],[1,0.5]];portConstraint=eastwest;" parent="6yUyEg-KqjyoAzudW4GW-105" vertex="1">
          <mxGeometry y="35.25714329310826" width="504" height="27" as="geometry" />
        </mxCell>
        <mxCell id="6yUyEg-KqjyoAzudW4GW-108" value="+ updateOrderStatus(orderId: int, newStatus: OrderStatus): boolean" style="text;strokeColor=none;fillColor=none;align=left;verticalAlign=top;spacingLeft=4;spacingRight=4;overflow=hidden;rotatable=0;points=[[0,0.5],[1,0.5]];portConstraint=eastwest;" parent="6yUyEg-KqjyoAzudW4GW-105" vertex="1">
          <mxGeometry y="62.25714329310826" width="504" height="27" as="geometry" />
        </mxCell>
        <mxCell id="6yUyEg-KqjyoAzudW4GW-109" value="ProcessPayments" style="swimlane;fontStyle=1;align=center;verticalAlign=top;childLayout=stackLayout;horizontal=1;startSize=27.25714329310826;horizontalStack=0;resizeParent=1;resizeParentMax=0;resizeLast=0;collapsible=0;marginBottom=0;" parent="1" vertex="1">
          <mxGeometry x="1619" y="451" width="378" height="89.25714329310826" as="geometry" />
        </mxCell>
        <mxCell id="6yUyEg-KqjyoAzudW4GW-110" style="line;strokeWidth=1;fillColor=none;align=left;verticalAlign=middle;spacingTop=-1;spacingLeft=3;spacingRight=3;rotatable=0;labelPosition=right;points=[];portConstraint=eastwest;strokeColor=inherit;" parent="6yUyEg-KqjyoAzudW4GW-109" vertex="1">
          <mxGeometry y="27.25714329310826" width="378" height="8" as="geometry" />
        </mxCell>
        <mxCell id="6yUyEg-KqjyoAzudW4GW-111" value="+ chargeCard(paymentInfo: PaymentInfo): boolean" style="text;strokeColor=none;fillColor=none;align=left;verticalAlign=top;spacingLeft=4;spacingRight=4;overflow=hidden;rotatable=0;points=[[0,0.5],[1,0.5]];portConstraint=eastwest;" parent="6yUyEg-KqjyoAzudW4GW-109" vertex="1">
          <mxGeometry y="35.25714329310826" width="378" height="27" as="geometry" />
        </mxCell>
        <mxCell id="6yUyEg-KqjyoAzudW4GW-112" value="+ refund(orderId: int): boolean" style="text;strokeColor=none;fillColor=none;align=left;verticalAlign=top;spacingLeft=4;spacingRight=4;overflow=hidden;rotatable=0;points=[[0,0.5],[1,0.5]];portConstraint=eastwest;" parent="6yUyEg-KqjyoAzudW4GW-109" vertex="1">
          <mxGeometry y="62.25714329310826" width="378" height="27" as="geometry" />
        </mxCell>
        <mxCell id="6yUyEg-KqjyoAzudW4GW-113" value="ViewOrderHistory" style="swimlane;fontStyle=1;align=center;verticalAlign=top;childLayout=stackLayout;horizontal=1;startSize=29.039999389648436;horizontalStack=0;resizeParent=1;resizeParentMax=0;resizeLast=0;collapsible=0;marginBottom=0;" parent="1" vertex="1">
          <mxGeometry x="2048" y="462" width="248" height="66.03999938964844" as="geometry" />
        </mxCell>
        <mxCell id="6yUyEg-KqjyoAzudW4GW-114" style="line;strokeWidth=1;fillColor=none;align=left;verticalAlign=middle;spacingTop=-1;spacingLeft=3;spacingRight=3;rotatable=0;labelPosition=right;points=[];portConstraint=eastwest;strokeColor=inherit;" parent="6yUyEg-KqjyoAzudW4GW-113" vertex="1">
          <mxGeometry y="29.039999389648436" width="248" height="8" as="geometry" />
        </mxCell>
        <mxCell id="6yUyEg-KqjyoAzudW4GW-115" value="+ viewOrder(orderId: int): Order" style="text;strokeColor=none;fillColor=none;align=left;verticalAlign=top;spacingLeft=4;spacingRight=4;overflow=hidden;rotatable=0;points=[[0,0.5],[1,0.5]];portConstraint=eastwest;" parent="6yUyEg-KqjyoAzudW4GW-113" vertex="1">
          <mxGeometry y="37.039999389648436" width="248" height="29" as="geometry" />
        </mxCell>
        <mxCell id="6yUyEg-KqjyoAzudW4GW-120" value="PlaceOrder" style="swimlane;fontStyle=1;align=center;verticalAlign=top;childLayout=stackLayout;horizontal=1;startSize=24.899999618530273;horizontalStack=0;resizeParent=1;resizeParentMax=0;resizeLast=0;collapsible=0;marginBottom=0;" parent="1" vertex="1">
          <mxGeometry x="916" y="474" width="99" height="36.89999961853027" as="geometry" />
        </mxCell>
        <mxCell id="6yUyEg-KqjyoAzudW4GW-121" style="line;strokeWidth=1;fillColor=none;align=left;verticalAlign=middle;spacingTop=-1;spacingLeft=3;spacingRight=3;rotatable=0;labelPosition=right;points=[];portConstraint=eastwest;strokeColor=inherit;" parent="6yUyEg-KqjyoAzudW4GW-120" vertex="1">
          <mxGeometry y="24.899999618530273" width="99" height="12" as="geometry" />
        </mxCell>
        <mxCell id="6yUyEg-KqjyoAzudW4GW-122" value="" style="curved=1;startArrow=none;endArrow=none;exitX=0.7928492044362021;exitY=1.0006042895360296;entryX=-0.000951647501012419;entryY=0.2373193480161955;rounded=0;" parent="1" source="6yUyEg-KqjyoAzudW4GW-1" target="6yUyEg-KqjyoAzudW4GW-26" edge="1">
          <mxGeometry relative="1" as="geometry">
            <Array as="points" />
          </mxGeometry>
        </mxCell>
        <mxCell id="6yUyEg-KqjyoAzudW4GW-123" value="0..*" style="edgeLabel;html=1;align=center;verticalAlign=middle;resizable=0;points=[];" parent="6yUyEg-KqjyoAzudW4GW-122" vertex="1" connectable="0">
          <mxGeometry x="0.8272" y="2" relative="1" as="geometry">
            <mxPoint as="offset" />
          </mxGeometry>
        </mxCell>
        <mxCell id="6yUyEg-KqjyoAzudW4GW-124" value="1" style="edgeLabel;html=1;align=center;verticalAlign=middle;resizable=0;points=[];" parent="6yUyEg-KqjyoAzudW4GW-122" vertex="1" connectable="0">
          <mxGeometry x="-0.7289" y="-3" relative="1" as="geometry">
            <mxPoint as="offset" />
          </mxGeometry>
        </mxCell>
        <mxCell id="6yUyEg-KqjyoAzudW4GW-125" value="" style="curved=1;startArrow=none;endArrow=none;exitX=0.7541452380153862;exitY=1.0006042895360296;entryX=0.275065574918645;entryY=0.0010257427509014422;rounded=0;" parent="1" source="6yUyEg-KqjyoAzudW4GW-1" target="6yUyEg-KqjyoAzudW4GW-37" edge="1">
          <mxGeometry relative="1" as="geometry">
            <Array as="points">
              <mxPoint x="900" y="1300" />
            </Array>
          </mxGeometry>
        </mxCell>
        <mxCell id="6yUyEg-KqjyoAzudW4GW-126" value="0..*" style="edgeLabel;html=1;align=center;verticalAlign=middle;resizable=0;points=[];" parent="6yUyEg-KqjyoAzudW4GW-125" vertex="1" connectable="0">
          <mxGeometry x="0.9313" y="15" relative="1" as="geometry">
            <mxPoint x="-1" as="offset" />
          </mxGeometry>
        </mxCell>
        <mxCell id="6yUyEg-KqjyoAzudW4GW-127" value="1" style="edgeLabel;html=1;align=center;verticalAlign=middle;resizable=0;points=[];" parent="6yUyEg-KqjyoAzudW4GW-125" vertex="1" connectable="0">
          <mxGeometry x="-0.9185" relative="1" as="geometry">
            <mxPoint as="offset" />
          </mxGeometry>
        </mxCell>
        <mxCell id="6yUyEg-KqjyoAzudW4GW-128" value="" style="curved=1;startArrow=none;endArrow=none;exitX=0.19400584374242355;exitY=1.0006042895360296;entryX=0.4998560339454713;entryY=-0.001666577657063802;rounded=0;" parent="1" source="6yUyEg-KqjyoAzudW4GW-1" target="6yUyEg-KqjyoAzudW4GW-64" edge="1">
          <mxGeometry relative="1" as="geometry">
            <Array as="points" />
          </mxGeometry>
        </mxCell>
        <mxCell id="6yUyEg-KqjyoAzudW4GW-129" value="" style="curved=1;startArrow=none;endArrow=none;exitX=0.4998560339454713;exitY=0.999166742960612;entryX=0.5012623630674545;entryY=0.0007605316974364306;rounded=0;" parent="1" source="6yUyEg-KqjyoAzudW4GW-64" target="6yUyEg-KqjyoAzudW4GW-15" edge="1">
          <mxGeometry relative="1" as="geometry">
            <Array as="points" />
          </mxGeometry>
        </mxCell>
        <mxCell id="6yUyEg-KqjyoAzudW4GW-130" value="1" style="edgeLabel;resizable=0;align=left;verticalAlign=top;" parent="6yUyEg-KqjyoAzudW4GW-129" vertex="1">
          <mxGeometry x="-1" relative="1" as="geometry" />
        </mxCell>
        <mxCell id="6yUyEg-KqjyoAzudW4GW-131" value="0..*" style="edgeLabel;html=1;align=center;verticalAlign=middle;resizable=0;points=[];" parent="6yUyEg-KqjyoAzudW4GW-129" vertex="1" connectable="0">
          <mxGeometry x="0.6719" y="2" relative="1" as="geometry">
            <mxPoint as="offset" />
          </mxGeometry>
        </mxCell>
        <mxCell id="6yUyEg-KqjyoAzudW4GW-132" value="" style="curved=1;startArrow=none;endArrow=none;exitX=0.5012623630674545;exitY=1.0007605316974364;entryX=0.4997813848801601;entryY=-0.0023255015528479287;rounded=0;" parent="1" source="6yUyEg-KqjyoAzudW4GW-15" target="6yUyEg-KqjyoAzudW4GW-52" edge="1">
          <mxGeometry relative="1" as="geometry">
            <Array as="points" />
          </mxGeometry>
        </mxCell>
        <mxCell id="6yUyEg-KqjyoAzudW4GW-133" value="1..*" style="edgeLabel;html=1;align=center;verticalAlign=middle;resizable=0;points=[];" parent="6yUyEg-KqjyoAzudW4GW-132" vertex="1" connectable="0">
          <mxGeometry x="0.6532" y="2" relative="1" as="geometry">
            <mxPoint as="offset" />
          </mxGeometry>
        </mxCell>
        <mxCell id="6yUyEg-KqjyoAzudW4GW-134" value="1" style="edgeLabel;html=1;align=center;verticalAlign=middle;resizable=0;points=[];" parent="6yUyEg-KqjyoAzudW4GW-132" vertex="1" connectable="0">
          <mxGeometry x="-0.7214" y="-1" relative="1" as="geometry">
            <mxPoint as="offset" />
          </mxGeometry>
        </mxCell>
        <mxCell id="6yUyEg-KqjyoAzudW4GW-135" value="" style="curved=1;startArrow=none;endArrow=none;exitX=1.0017920240844036;exitY=0.6362560259077308;entryX=0.471;entryY=-0.027;rounded=0;entryDx=0;entryDy=0;entryPerimeter=0;" parent="1" source="6yUyEg-KqjyoAzudW4GW-15" target="6yUyEg-KqjyoAzudW4GW-37" edge="1">
          <mxGeometry relative="1" as="geometry">
            <Array as="points" />
          </mxGeometry>
        </mxCell>
        <mxCell id="6yUyEg-KqjyoAzudW4GW-136" value="1" style="edgeLabel;html=1;align=center;verticalAlign=middle;resizable=0;points=[];" parent="6yUyEg-KqjyoAzudW4GW-135" vertex="1" connectable="0">
          <mxGeometry x="-0.9232" y="-3" relative="1" as="geometry">
            <mxPoint as="offset" />
          </mxGeometry>
        </mxCell>
        <mxCell id="6yUyEg-KqjyoAzudW4GW-137" value="0..*" style="edgeLabel;html=1;align=center;verticalAlign=middle;resizable=0;points=[];" parent="6yUyEg-KqjyoAzudW4GW-135" vertex="1" connectable="0">
          <mxGeometry x="0.8411" y="2" relative="1" as="geometry">
            <mxPoint as="offset" />
          </mxGeometry>
        </mxCell>
        <mxCell id="6yUyEg-KqjyoAzudW4GW-138" value="" style="curved=1;startArrow=none;endArrow=none;exitX=0.0007327020505053849;exitY=0.9223227712214472;entryX=0.4989649778718402;entryY=0.0031747969370039685;rounded=0;" parent="1" source="6yUyEg-KqjyoAzudW4GW-15" target="6yUyEg-KqjyoAzudW4GW-79" edge="1">
          <mxGeometry relative="1" as="geometry">
            <Array as="points" />
          </mxGeometry>
        </mxCell>
        <mxCell id="6yUyEg-KqjyoAzudW4GW-139" value="0..*" style="edgeLabel;html=1;align=center;verticalAlign=middle;resizable=0;points=[];" parent="6yUyEg-KqjyoAzudW4GW-138" vertex="1" connectable="0">
          <mxGeometry x="0.7444" y="1" relative="1" as="geometry">
            <mxPoint as="offset" />
          </mxGeometry>
        </mxCell>
        <mxCell id="6yUyEg-KqjyoAzudW4GW-140" value="1" style="edgeLabel;html=1;align=center;verticalAlign=middle;resizable=0;points=[];" parent="6yUyEg-KqjyoAzudW4GW-138" vertex="1" connectable="0">
          <mxGeometry x="-0.7344" y="-2" relative="1" as="geometry">
            <mxPoint x="1" as="offset" />
          </mxGeometry>
        </mxCell>
        <mxCell id="6yUyEg-KqjyoAzudW4GW-141" value="" style="curved=1;startArrow=none;endArrow=none;exitX=0.9999257823046032;exitY=0.7230975522335581;entryX=0.12313921415498913;entryY=-0.0011627285979514898;rounded=0;" parent="1" source="6yUyEg-KqjyoAzudW4GW-26" target="6yUyEg-KqjyoAzudW4GW-45" edge="1">
          <mxGeometry relative="1" as="geometry">
            <Array as="points" />
          </mxGeometry>
        </mxCell>
        <mxCell id="6yUyEg-KqjyoAzudW4GW-142" value="1" style="edgeLabel;html=1;align=center;verticalAlign=middle;resizable=0;points=[];" parent="6yUyEg-KqjyoAzudW4GW-141" vertex="1" connectable="0">
          <mxGeometry x="-0.9073" y="-1" relative="1" as="geometry">
            <mxPoint as="offset" />
          </mxGeometry>
        </mxCell>
        <mxCell id="6yUyEg-KqjyoAzudW4GW-143" value="0..*" style="edgeLabel;html=1;align=center;verticalAlign=middle;resizable=0;points=[];" parent="6yUyEg-KqjyoAzudW4GW-141" vertex="1" connectable="0">
          <mxGeometry x="0.8448" y="-1" relative="1" as="geometry">
            <mxPoint as="offset" />
          </mxGeometry>
        </mxCell>
        <mxCell id="6yUyEg-KqjyoAzudW4GW-144" value="" style="curved=1;startArrow=none;endArrow=none;exitX=0.5006089939790613;exitY=0.997674587161042;entryX=0.5009161856322162;entryY=0.0031747969370039685;rounded=0;" parent="1" source="6yUyEg-KqjyoAzudW4GW-45" target="6yUyEg-KqjyoAzudW4GW-59" edge="1">
          <mxGeometry relative="1" as="geometry">
            <Array as="points" />
          </mxGeometry>
        </mxCell>
        <mxCell id="6yUyEg-KqjyoAzudW4GW-145" value="0..*" style="edgeLabel;html=1;align=center;verticalAlign=middle;resizable=0;points=[];" parent="6yUyEg-KqjyoAzudW4GW-144" vertex="1" connectable="0">
          <mxGeometry x="0.7093" y="1" relative="1" as="geometry">
            <mxPoint as="offset" />
          </mxGeometry>
        </mxCell>
        <mxCell id="6yUyEg-KqjyoAzudW4GW-146" value="1" style="edgeLabel;html=1;align=center;verticalAlign=middle;resizable=0;points=[];" parent="6yUyEg-KqjyoAzudW4GW-144" vertex="1" connectable="0">
          <mxGeometry x="-0.7445" y="-1" relative="1" as="geometry">
            <mxPoint as="offset" />
          </mxGeometry>
        </mxCell>
        <mxCell id="6yUyEg-KqjyoAzudW4GW-147" value="" style="curved=1;startArrow=none;endArrow=none;exitX=0;exitY=0.5;entryX=0.5012995653813428;entryY=0.0013424150095690016;rounded=0;exitDx=0;exitDy=0;" parent="1" source="6yUyEg-KqjyoAzudW4GW-31" target="6yUyEg-KqjyoAzudW4GW-84" edge="1">
          <mxGeometry relative="1" as="geometry">
            <Array as="points" />
          </mxGeometry>
        </mxCell>
        <mxCell id="6yUyEg-KqjyoAzudW4GW-150" value="" style="curved=1;startArrow=none;endArrow=none;exitX=0.5023754774922072;exitY=0.9896552973780138;entryX=0.25;entryY=0;rounded=0;entryDx=0;entryDy=0;" parent="1" source="6yUyEg-KqjyoAzudW4GW-120" target="6yUyEg-KqjyoAzudW4GW-26" edge="1">
          <mxGeometry relative="1" as="geometry">
            <Array as="points" />
          </mxGeometry>
        </mxCell>
        <mxCell id="6yUyEg-KqjyoAzudW4GW-151" value="" style="curved=1;startArrow=none;endArrow=none;exitX=0.5005208575536334;exitY=1.0019418290517863;entryX=0.4994870674017954;entryY=0.0007605316974364306;rounded=0;" parent="1" source="6yUyEg-KqjyoAzudW4GW-105" target="6yUyEg-KqjyoAzudW4GW-26" edge="1">
          <mxGeometry relative="1" as="geometry">
            <Array as="points" />
          </mxGeometry>
        </mxCell>
        <mxCell id="6yUyEg-KqjyoAzudW4GW-152" value="" style="curved=1;startArrow=none;endArrow=none;exitX=0.5016452042514055;exitY=1.0019418290517863;entryX=0.9999257823046032;entryY=0.22015822430861487;rounded=0;" parent="1" source="6yUyEg-KqjyoAzudW4GW-109" target="6yUyEg-KqjyoAzudW4GW-26" edge="1">
          <mxGeometry relative="1" as="geometry">
            <Array as="points">
              <mxPoint x="1710" y="650" />
            </Array>
          </mxGeometry>
        </mxCell>
        <mxCell id="6yUyEg-KqjyoAzudW4GW-153" value="" style="curved=1;startArrow=none;endArrow=none;exitX=0.49930701717253656;exitY=0.9975309489685812;entryX=0.9999257823046032;entryY=0.3394194130563079;rounded=0;" parent="1" source="6yUyEg-KqjyoAzudW4GW-113" target="6yUyEg-KqjyoAzudW4GW-26" edge="1">
          <mxGeometry relative="1" as="geometry">
            <Array as="points" />
          </mxGeometry>
        </mxCell>
        <mxCell id="6yUyEg-KqjyoAzudW4GW-156" value="" style="curved=1;startArrow=none;endArrow=none;exitX=0.4992002514301318;exitY=0.999999952904972;entryX=0.99853496933833;entryY=0.2380386053312028;rounded=0;" parent="1" source="6yUyEg-KqjyoAzudW4GW-90" target="6yUyEg-KqjyoAzudW4GW-1" edge="1">
          <mxGeometry relative="1" as="geometry">
            <Array as="points" />
          </mxGeometry>
        </mxCell>
        <mxCell id="6yUyEg-KqjyoAzudW4GW-157" value="" style="endArrow=none;html=1;rounded=0;entryX=0.516;entryY=0.982;entryDx=0;entryDy=0;entryPerimeter=0;exitX=0.75;exitY=0;exitDx=0;exitDy=0;" parent="1" source="6yUyEg-KqjyoAzudW4GW-1" target="6yUyEg-KqjyoAzudW4GW-78" edge="1">
          <mxGeometry width="50" height="50" relative="1" as="geometry">
            <mxPoint x="700" y="330" as="sourcePoint" />
            <mxPoint x="810" y="230" as="targetPoint" />
          </mxGeometry>
        </mxCell>
        <mxCell id="6yUyEg-KqjyoAzudW4GW-158" value="" style="endArrow=none;html=1;rounded=0;entryX=0.498;entryY=1.114;entryDx=0;entryDy=0;entryPerimeter=0;exitX=0.25;exitY=0;exitDx=0;exitDy=0;" parent="1" source="6yUyEg-KqjyoAzudW4GW-1" target="6yUyEg-KqjyoAzudW4GW-98" edge="1">
          <mxGeometry width="50" height="50" relative="1" as="geometry">
            <mxPoint x="450" y="465.04" as="sourcePoint" />
            <mxPoint x="453" y="249.04000000000002" as="targetPoint" />
          </mxGeometry>
        </mxCell>
      </root>
    </mxGraphModel>
  </diagram>
</mxfile>
